<?xml version="1.0" encoding="UTF-8"?>
<svg id="a" data-name="OBJECTS" xmlns="http://www.w3.org/2000/svg" width="223.51641" height="188.69671" viewBox="0 0 223.51641 188.69671">
  <path d="M33.48641,122.77866h-9.36c-.122-.547-.206-1.102-.25-1.66,0-2.23,0-4.46.21-6.68.38-5.254.128-10.535-.75-15.73-.308-2.516-1.351-4.885-3-6.81-2.47-2.74-3.84-2.66-5.17.83-1.045,2.764-1.782,5.635-2.2,8.56-.468,3.454-.702,6.935-.7,10.42-.08,15.07-.14,30.14,0,45.20999.138,3.77901.536,7.545,1.19,11.27.374,2.741,1.511,5.323,3.28,7.45.504.642,1.081,1.22301,1.72,1.73,2.78,2.07001,5.82,1.17,6.82-2.17.652-2.10899,1.058-4.287,1.21-6.49001.23-4.14.14-8.3.19-12.45v-3.63c3.27-.39,6.49-.16,9.77-.28.141.379.245.771.31,1.17.27,6.83.53,13.67-.75,20.43001-.405,2.55901-1.208,5.039-2.38,7.35001-4.26,7.75-13.68,9.69-20.88,4.49001-3.792-2.80299-6.611-6.72301-8.06-11.21001-1.716-5.077-2.588-10.401-2.58-15.75999-.113-16.92-.083-33.843.09-50.77-.071-5.583.773-11.14,2.5-16.45.702-2.102,1.645-4.115,2.81-6,4.25-6.63,12-7.69,18.07-2.63,4.172,3.547,6.918,8.485,7.73,13.9,1.43,7.89,1,15.82.67,23.76-.037.519-.113,1.033-.23,1.54-.071.21-.158.413-.26.61Z" style="fill: #232122; fill-rule: evenodd;"/>
  <path d="M131.40641,186.43866c-.09-3-.23-5.63-.25-8.28-.11-13.88-.17-27.75999-.28999-41.63-.09-9.2-.39-18.4-.31-27.59.105-4.67.496-9.328,1.17-13.95.483-3.789,2.049-7.358,4.50999-10.28,4.14999-4.92,9.81-5.9,15.38-2.71,2.78799,1.593,5.011,4.015,6.36,6.93,1.62801,3.585,2.69,7.4,3.14999,11.31.81799,6.704,1.112,13.461.88,20.21-.061.51-.17101,1.012-.33,1.5h-9.58c-.114-.726-.19-1.457-.23-2.19-.05-3.49,0-7-.12-10.46-.21001-5.12-.61-10.22-2.48-15.07-.47301-1.419-1.40601-2.64-2.64999-3.47-.73801-.607-1.828-.5-2.435.238-.037.046-.07201.093-.105.142-1.325,1.619-2.161,3.583-2.41,5.66-.521,2.997-.81799,6.029-.89,9.07,0,12.16.21001,24.32999.34,36.49999.02499.289.065.576.12.86,4.82001.2,9.63-.88,14.67999-.7v9.89l-14.64,1.2c-.06.63-.17,1.2-.17,1.77,0,7.33299.033,14.66701.10001,22,0,2.28999.23,4.59.13,6.88-.09,2-.27,2.09-2.28,2.10001-2.45.09-4.89.07001-7.64999.07001l-.00003-.00002Z" style="fill: #232122; fill-rule: evenodd;"/>
  <path d="M105.56641,144.39865c5.25-.17999,10.23-.95,15.38-.89999v9.89l-15.22,1.25999c-.06.83-.16,1.48-.15,2.12.09,8.32001.21,16.62.3,24.94,0,1.53-.07,3.06-.12,4.69h-9.79c-.07-.83-.19-1.62-.19-2.41-.1-9.57001-.16-19.14-.28-28.72-.15-11.87-.45-23.74001-.48-35.61,0-6.75.29-13.5.65-20.24.196-3.42,1.076-6.767,2.59-9.84,1.175-2.581,3.018-4.801,5.34-6.43,3.218-2.308,7.446-2.658,11-.91,3.442,1.497,6.221,4.195,7.82,7.59,1.543,3.378,2.587,6.962,3.1,10.64,1.13,7.07,1,14.2.93,21.33-.047.651-.134,1.299-.26,1.94-3.08.65-6.2.21-9.53.69-.09-1-.21-1.75-.23-2.52-.09-3.94,0-7.88-.25-11.8s-.81-7.66-1.38-11.46c-.299-1.376-.742-2.716-1.32-4-.237-.621-.575-1.199-1-1.71-1.91-2.24-3.32-2.08-4.78.51s-1.82,5.47-2.1,8.36c-.81,8.59-.51,17.19-.27,25.8.13,4.75.18,9.5.27,14.25-.02.78999-.03,1.59-.03,2.53999h.00002Z" style="fill: #232122; fill-rule: evenodd;"/>
  <path d="M178.23641,176.56867c4.41.36,8.75-.58,13.14-.2v8.86c0,.38-.67999.82001-1.13,1.09-.351.118-.72501.149-1.09.09-6.74699.14-13.49699.27299-20.25.39999-.315-.01199-.629-.04601-.94-.10001-.06-1-.19-2.10001-.19-3.17999.147-16.767.30701-33.537.48-50.31.13-14.39.25-28.79.44-43.18.118-1.696.325-3.385.62-5.06-.002-1.011.81599-1.831,1.827-1.833.075,0,.149.004.22301.013,2.82001-.08,5.64-.26,8.45-.34,3.86-.107,7.72-.197,11.58-.27.57001,0,1.14999.1,1.91.17.13,3.11.25999,6.11.39999,9.32-2.448.375-4.92599.515-7.39999.42h-7.36c-.08,1-.19,1.77-.2,2.55-.08,9.2-.13,18.4-.23,27.61-.06,6.3-.17999,12.61-.27,18.92v2.67l13.25-.53c.28999,3.3.55,6.3.83,9.62l-14.06.86-.03,22.41Z" style="fill: #232122; fill-rule: evenodd;"/>
  <path d="M198.03641,186.61865c0-1-.13-2-.12-2.95.233-26,.467-51.97701.7-77.93.047-5.56.14301-11.123.28999-16.69.05499-1.348.239-2.687.55-4,.39999-1.81.45-1.9,2.36-2,5.34-.23,10.67999-.38,16-.53,1.83-.06,3.66,0,5.7,0v9.6c-4.67.39-9.47.18-14.2.4-.49001,1.65-1.12,47.83001-.71001,51.36001.465.093.936.14999,1.41.17,2.82001-.12,5.63-.3,8.45-.39999,1,0,2,.07001,3.19.12.27,3.21001.50999,6.21001.78,9.46001-4.75.27-9.23.53999-14,.83-.14,7.48-.27,14.91-.39999,22.41,4.72.45,9.13-.58,13.58-.14v8.66c.04401.67799-.46899,1.263-1.147,1.30701-.03101.002-.062.00301-.093.00301h-.89l-20.47.39999c-.328-.00301-.65601-.03-.98-.08v-.00003Z" style="fill: #232122; fill-rule: evenodd;"/>
  <path d="M61.26641,111.28866c14.332.028,25.927,11.669,25.899,26.00001s-11.669,25.927-26,25.899c-14.332-.028-25.927-11.66901-25.899-26v-.10899c.115-14.277,11.722-25.79,26-25.79v-.00002ZM76.96641,137.17865c-.028-8.726-7.124-15.778-15.85-15.75s-15.778,7.12399-15.75,15.85001c.028,8.707,7.093,15.75,15.8,15.75,8.698.028,15.772-7.00101,15.8-15.7v-.15001Z" style="fill: #232122; fill-rule: evenodd;"/>
  <path d="M84.80642,178.82866c-4.43.78-39.13.72-41.2,0v-9.34c13.76-.19,27.35-.50999,41.24-.41.12,3.37.06,6.50999-.04,9.75Z" style="fill: #232122; fill-rule: evenodd;"/>
  <path d="M19.96641,187.37866c-3.187-.02499-6.285-1.058-8.85-2.95-3.833-2.83701-6.683-6.802-8.15-11.34-1.725-5.099-2.604-10.44701-2.6-15.83-.1-16.33-.07-33.42.09-50.78-.089-5.608.76-11.191,2.51-16.52.704-2.13,1.653-4.17,2.83-6.08,2.124-3.589,5.95-5.828,10.12-5.92,3.071.059,6.022,1.203,8.33,3.23,4.21,3.569,6.985,8.543,7.81,14,1.44,7.95,1.05,16,.67,23.82-.031.468-.098.932-.2,1.39v.18c-.041.167-.101.328-.18.48l-.16.39h-9.81v-.21c0-.24-.08-.44-.12-.64-.08-.351-.123-.71-.13-1.07v-1.31c0-1.77.05-3.59.19-5.38.374-5.241.122-10.508-.75-15.69-.311-2.479-1.356-4.809-3-6.69-1.14-1.26-2-1.85-2.65-1.85s-1.43.83-2.11,2.6c-1.034,2.755-1.762,5.616-2.17,8.53-.458,3.448-.682,6.922-.67,10.4-.08,13.63-.15,29.48,0,45.2.097,3.439.431,6.867,1,10.25999l.15,1c.366,2.69299,1.482,5.23,3.22,7.32001.493.62601,1.057,1.19299,1.68,1.69.813.66701,1.82,1.05299,2.87,1.10001,1.67,0,3-1.16,3.59-3.10001.665-2.10001,1.074-4.272,1.22-6.47.17-3,.17-6,.17-8.89999v-7.39h.22c1.801-.18401,3.61-.26401,5.42-.24001h4.57v.19c0,.16.09.31.14.44.096.25101.156.513.18.78.27,6.74001.54,13.7-.75,20.49001-.419,2.58501-1.232,5.091-2.41,7.42999-2.421,4.53799-7.127,7.39101-12.27,7.44v-.00002Z" style="fill: #ffb900; fill-rule: evenodd;"/>
  <path d="M15.87641,78.20866c3.014.057,5.91,1.185,8.17,3.18,4.171,3.548,6.917,8.485,7.73,13.9,1.43,7.88,1,15.82.67,23.76-.047.518-.127,1.032-.24,1.54-.066.227-.153.448-.26.66h-9.36c-.119-.55-.2-1.108-.24-1.67,0-2.22,0-4.46.21-6.68.376-5.258.124-10.542-.75-15.74-.313-2.517-1.356-4.888-3-6.82-1.15-1.27-2.06-1.93-2.84-1.93s-1.63.89-2.34,2.77c-1.045,2.769-1.776,5.647-2.18,8.58-.462,3.457-.689,6.942-.68,10.43-.09,15.06-.15,30.13,0,45.2.112,3.795.486,7.577,1.12,11.32001.374,2.741,1.511,5.323,3.28,7.45.504.642,1.081,1.22301,1.72,1.73.854.683,1.907,1.073,3,1.11,1.71,0,3.19-1.14,3.83-3.27.673-2.14,1.092-4.35201,1.25-6.59.23-4.14.15-8.3.19-12.45v-3.63c1.791-.18401,3.59-.26401,5.39-.24001h4.38c.142.375.246.76401.31,1.16.27,6.83.54,13.67999-.74,20.42999-.422,2.54201-1.231,5.004-2.4,7.3-2.363,4.52299-7.027,7.37601-12.13,7.42-3.135-.02299-6.182-1.04201-8.7-2.91-3.8-2.79401-6.621-6.718-8.06-11.21001-1.737-5.07001-2.629-10.39101-2.64-15.75-.1-16.933-.07-33.86.09-50.78-.07-5.58.774-11.133,2.5-16.44.707-2.1,1.65-4.113,2.81-6,2.071-3.524,5.823-5.72,9.91-5.8M15.87641,77.73866h0c-4.249.081-8.154,2.35-10.33,6-1.185,1.927-2.144,3.984-2.86,6.13C.93041,95.22765.07541,100.84066.15641,106.47866c-.19,17.36-.19,34.45-.09,50.78001-.001,5.41.88,10.784,2.61,15.91,1.496,4.593,4.395,8.60201,8.29,11.46001,2.606,1.929,5.758,2.98,9,3,5.296-.01801,10.147-2.96201,12.61-7.64999,1.178-2.366,1.984-4.899,2.39-7.50999,1.29-6.81,1-13.78999.75-20.54001-.025-.291-.089-.576-.19-.85001-.056-.14-.102-.284-.14-.42999l-.1-.37h-4.76c-1.82-.024-3.639.056-5.45.24001l-.44.06v7.60001c0,2.92,0,5.94-.17,8.89999-.147,2.177-.554,4.32899-1.21,6.41-.55,1.83-1.8,2.92-3.35,2.92-.984-.037-1.93-.38699-2.7-1-.609-.481-1.156-1.035-1.63-1.64999-1.716-2.05299-2.818-4.549-3.18-7.2l-.14-1c-.568-3.383-.902-6.80099-1-10.23-.12-15.71001,0-31.57,0-45.2-.012-3.465.212-6.926.67-10.36.405-2.898,1.129-5.742,2.16-8.48.62-1.64,1.24-2.44,1.87-2.44s1.39.58,2.47,1.77c1.596,1.85,2.606,4.134,2.9,6.56.872,5.161,1.124,10.409.75,15.63-.14,1.8-.17,3.63-.19,5.4v1.3c-.02.402.006.805.08,1.2,0,.19.07.39.11.62l.06.43h10.15l.12-.32c0-.07.07-.15.1-.21.086-.171.149-.353.19-.54v-.18c.103-.471.17-.949.2-1.43.38-7.81.77-15.9-.67-23.87-.824-5.535-3.632-10.581-7.9-14.2-2.34-2.061-5.332-3.23-8.45-3.3v.03-.00005Z" style="fill: #ffb900;"/>
  <path d="M129.63642,185.14865v-.24001c0-1-.07001-1.91-.10001-2.82001-.07001-1.89-.14-3.67999-.16-5.47-.05299-6.187-.093-12.38-.12-18.58-.05299-7.67999-.11-15.347-.17-23,0-3.38-.09-6.75999-.14999-10.14-.10001-5.72-.21001-11.64-.16-17.46.108-4.686.502-9.362,1.17999-14,.48199-3.834,2.07001-7.444,4.57001-10.39,2.19501-2.852,5.562-4.558,9.16-4.64,2.3.04,4.549.685,6.52,1.87,2.834,1.601,5.09599,4.049,6.47,7,1.646,3.622,2.715,7.478,3.17,11.43.80701,6.718,1.101,13.487.88,20.25-.01601.34-.077.676-.17999,1-.05.18-.11.37-.16.59v.2h-10v-.22c0-.2,0-.4-.07001-.61-.082-.533-.132-1.071-.14999-1.61v-3.89c0-2.15,0-4.38-.09-6.57-.21001-4.87-.56-10-2.47-15-.45399-1.369-1.351-2.548-2.55-3.35-.29601-.204-.64101-.325-1-.35-.481.037-.92101.286-1.2.68-1.29601,1.586-2.114,3.507-2.36,5.54v.38c-.49001,2.859-.771,5.75-.84,8.65,0,9,.12,18.16.23,27,.03999,3.16.077,6.32001.11,9.48.009.145.02901.28799.06.42999v.19h1c2,0,4-.19,6-.37s4.14-.38,6.27-.38h1.42999v10.37l-14.78999,1.21001c0,.14,0,.28-.05.41-.05701.37399-.09.752-.10001,1.13,0,7.35001.05,14.69.10001,22,0,.88,0,1.75999.08,2.64.06,1.39.11,2.84.05,4.25-.10001,2.17999-.41,2.33-2.53,2.35001h-7.88v.03999l-.00002.00002Z" style="fill: #ffb900; fill-rule: evenodd;"/>
  <path d="M143.67641,78.63866c2.258.042,4.465.676,6.39999,1.84,2.79401,1.594,5.021,4.02,6.37,6.94,1.619,3.584,2.681,7.395,3.14999,11.3.808,6.708,1.10201,13.467.88,20.22-.06799.508-.17799,1.01-.33,1.5h-9.59c-.07001-.65-.21001-1.42-.22-2.2-.06-3.48,0-7-.12-10.46-.22-5.11-.62-10.22-2.49001-15.07-.46899-1.421-1.40199-2.643-2.64999-3.47-.33501-.235-.731-.371-1.14-.39-.556.032-1.06799.315-1.39.77-1.327,1.622-2.16299,3.589-2.41,5.67-.51801,2.994-.819,6.022-.89999,9.06,0,12.17.21001,24.34.34,36.50001.024.289.064.576.12.86h1.25c4,0,8.06999-.75,12.25999-.75h1.17999v9.89999l-14.64,1.19c-.091.586-.151,1.177-.17999,1.77,0,7.33301.033,14.66699.10001,22,0,2.3.23,4.60001.13,6.88-.09,2-.27,2.09-2.28,2.11h-7.64c-.10001-3-.24001-5.63-.25999-8.28-.11-13.87-.17-27.75-.28999-41.63-.08-9.19-.39-18.39-.31-27.59.10699-4.686.50101-9.362,1.17999-14,.48199-3.783,2.048-7.347,4.50999-10.26,2.155-2.803,5.465-4.476,9-4.55M143.70641,77.99866c-3.672.08-7.11,1.819-9.35001,4.73-2.52901,2.984-4.138,6.639-4.63,10.52-.672,4.639-1.06599,9.314-1.17999,14-.05,5.83.06,11.75.16,17.48.06,3.32001.12,6.75.14999,10.12.067,7.66.123,15.327.17,23,0,6.22.03999,12.437.12,18.64999,0,1.8.09,3.59.16,5.49001,0,.91.07001,1.84.10001,2.81v.48h8.13c2.23,0,2.67999-.23,2.78-2.58.06-1.42999,0-2.88-.05-4.28,0-.87-.07001-1.75999-.08-2.63,0-7.45-.08-15-.10001-22,.00999-.368.04401-.73599.10001-1.10001v-.2l5.75-.47,8.48-.69h.46001v-10.8h-1.67999c-2.14,0-4.25.19-6.3.38s-4,.37-6,.37h-.82001c-.00999-.123-.00999-.24699,0-.37,0-3.147-.037-6.297-.11-9.45-.11-8.87-.22-18-.23-27.05.07001-2.893.35001-5.778.84-8.63v-.36c.23399-1.986,1.032-3.863,2.3-5.41.45-.54.78999-.6,1-.6.317.024.62199.134.88.32,1.15401.769,2.017,1.903,2.45,3.22,1.89,4.91,2.24001,10.06,2.45,14.91.09,2.19.09,4.41.09,6.57v3.88c.017.549.067,1.097.14999,1.64,0,.21,0,.41.08.6v.45h10.44l.08-.39c.05-.22.11-.41.16-.59.108-.323.172-.66.19-1,.222-6.776-.075-13.559-.89-20.29-.46201-3.959-1.53799-7.822-3.19-11.45-1.39999-3.004-3.69501-5.502-6.57001-7.15-2.00999-1.212-4.304-1.871-6.64999-1.91l.16-.22v.00002Z" style="fill: #ffb900;"/>
  <path d="M94.18641,185.11865v-.23c0-.27,0-.53999-.07-.8-.06-.56-.11-1.09-.12-1.63-.04-3.813-.073-7.627-.1-11.44-.047-5.75999-.103-11.52-.17-17.28-.06-4.27299-.127-8.547-.2-12.82001-.13-7.47-.27-15.2-.28-22.8,0-6.43.25-12.74.64-20.25.203-3.455,1.094-6.834,2.62-9.94,1.199-2.626,3.085-4.879,5.46-6.52,1.849-1.312,4.053-2.03,6.32-2.06,1.701.023,3.377.404,4.92,1.12,3.49,1.533,6.309,4.275,7.94,7.72,1.56,3.394,2.612,6.999,3.12,10.7,1,6.39,1,12.93.95,19.24v2.13c-.014.42-.064.838-.15,1.25,0,.22-.08.46-.11.73v.17h-.17c-1.696.306-3.417.447-5.14.42-1.474-.002-2.947.088-4.41.27h-.26v-.26c0-.33-.07-.63-.1-.91-.07-.6-.12-1.11-.14-1.63v-3.95c0-2.58,0-5.24-.21-7.84-.26-3.88-.82-7.78-1.37-11.44-.212-1.101-.547-2.174-1-3.2l-.29-.75c-.246-.596-.583-1.149-1-1.64-.85-1-1.57-1.47-2.21-1.47s-1.43.64-2.17,1.94c-1.42,2.53-1.79,5.35-2.06,8.26-.601,8.083-.708,16.194-.32,24.29v1.48c.09,3.42001.15,6.84.21,10.24999l.06,4v2.3c2.14-.09,4.26-.25999,6.31-.42999,2.74-.23,5.57-.47,8.4-.47h.68v10.37l-15.25,1.25999v.57001c0,.48-.08.89999-.08,1.31.05,3.72.09,7.42999.14,11.14.06,4.60001.117,9.2.17,13.8,0,1,0,2.07001-.07,3.16v1.78999l-10.49.09v.00002Z" style="fill: #ffb900; fill-rule: evenodd;"/>
  <path d="M108.23642,79.59866c1.666.021,3.31.396,4.82,1.1,3.439,1.497,6.215,4.195,7.81,7.59,1.546,3.377,2.59,6.961,3.1,10.64,1.13,7.08,1,14.21.94,21.33-.045.652-.132,1.299-.26,1.94-3.09.65-6.21.21-9.53.69-.1-1-.22-1.74-.24-2.52-.08-3.93,0-7.88-.25-11.79s-.8-7.66-1.38-11.47c-.29-1.378-.733-2.72-1.32-4-.236-.621-.574-1.199-1-1.71-.89-1-1.67-1.56-2.4-1.56s-1.61.69-2.39,2.07c-1.46,2.59-1.82,5.48-2.09,8.36-.82,8.59-.51,17.2-.28,25.8.13,4.75.19,9.5.27,14.25v2.53999c5.11-.17,10-.89999,15-.89999h.43v9.89999l-15.23,1.25c-.06.84-.16,1.48-.15,2.13.1,8.31.22,16.62.31,24.93001,0,1.53-.08,3.06-.12,4.7h-9.81c-.07-.84-.18-1.62-.19-2.41-.1-9.58-.15-19.14999-.27-28.72-.15-11.88-.46-23.75-.48-35.62,0-6.75.29-13.5.64-20.23.199-3.423,1.08-6.772,2.59-9.85,1.175-2.584,3.023-4.804,5.35-6.43,1.812-1.274,3.966-1.971,6.18-2M108.28641,79.10866c-2.316.033-4.568.765-6.46,2.1-2.401,1.673-4.305,3.964-5.51,6.63-1.544,3.122-2.442,6.523-2.64,10-.4,7.51-.67,13.83-.65,20.26,0,7.6.15,15.32999.28,22.8.067,4.267.133,8.53999.2,12.82001.07,5.75999.12,11.61.17,17.27,0,3.82001.06,7.63.1,11.45,0,.56.06,1.09.12,1.66,0,.25999.05.52.07.78999v.46001h10.75v-2.03c0-1.09.08-2.12.07-3.17,0-4.64999-.11-9.28-.17-13.92-.053-3.67999-.1-7.347-.14-11,0-.39999,0-.81.08-1.28v-.37l11-.91,3.83-.32001h.46v-10.88h-.88c-2.84,0-5.68.24001-8.43.47-2,.16-4,.33-6,.42v-2.03999l-.06-4c-.06-3.37-.11-6.86-.21-10.28v-1.48c-.386-8.086-.282-16.187.31-24.26.28-2.89.64-5.68,2-8.16.69-1.22,1.32-1.82,2-1.82s1.23.47,2,1.39c.391.467.705.994.93,1.56.09.25.19.5.29.75.453,1.005.789,2.058,1,3.14.55,3.66,1.11,7.56,1.37,11.43.18,2.59.19,5.25.21,7.82v3.95c0,.54.08,1.08.14,1.66,0,.28.07.58.1.9v.52l.52-.07c1.453-.182,2.916-.273,4.38-.27,1.737.025,3.471-.119,5.18-.43l.34-.07v-.35c.04-.26.08-.5.12-.72.088-.425.138-.856.15-1.29v-2.12c0-6.33.07-12.88-.95-19.28-.517-3.728-1.578-7.36-3.15-10.78-1.652-3.499-4.515-6.28-8.06-7.83-1.567-.732-3.271-1.124-5-1.15,0,0,.14.03.14.03001Z" style="fill: #ffb900;"/>
  <path d="M167.30642,185.52866c-.168-.008-.336-.032-.5-.07001l-.45-.08h-.19v-.2c0-.32001,0-.66-.07001-1-.06-.72-.12-1.46001-.11-2.2.12-13.91299.25-27.827.39-41.74001l.17-18.39c.10699-11.127.22301-22.25.35001-33.37.047-1.114.17101-2.223.37-3.32.09-.59.19-1.18.25999-1.77.032-1.143.985-2.043,2.127-2.011.054.002.10899.005.16299.011,1.50999,0,3-.11,4.50999-.18,1.32001-.06,2.63-.12,3.94-.16,3.86-.11,7.72-.19,11.58-.27h0c.412.007.823.041,1.23.1l.69.08h.22l.42,9.75h-.21001c-1.981.336-3.991.476-6,.42h-8.61c0,.24,0,.48-.06.7-.06.58-.11,1.09-.12,1.6l-.09,11.75c-.03999,5.293-.08299,10.577-.13,15.85,0,4.17-.11,8.34-.17999,12.51,0,2.14-.07001,4.28-.10001,6.41v2.41l13.23-.52.88,10.11-14.09.86v22c.61,0,1.25.07001,2,.07001,1.44,0,2.91-.10001,4.33-.19s2.89-.19,4.35001-.19c.82001,0,1.57001,0,2.28999.09h.23v2.44c0,2.3,0,4.48-.06,6.66,0,.49001-.64.92999-1.24001,1.3-.203.105-.431.15401-.66.14h-.52l-20.28999.39999h-.05.00003Z" style="fill: #ffb900; fill-rule: evenodd;"/>
  <path d="M189.90641,80.96866c.55,0,1.11.11,1.83.18.13,3.1.25999,6.11.39999,9.32-2.44901.365-4.92599.505-7.39999.42h-7.36c-.08,1-.19,1.77-.2,2.54-.08,9.21-.13,18.41-.22,27.61-.07001,6.31-.19,12.60999-.28,18.92001v2.67l13.25999-.52c.28,3.3.53999,6.28999.83,9.61l-14.06999.86v22.44c.73.06,1.47.09,2.2.09,2.89999,0,5.78-.38,8.68001-.38.75,0,1.50999,0,2.27.09,0,3.12,0,6-.06,8.86,0,.39-.67.82001-1.12,1.10001-.166.076-.34801.11-.53.10001h-.57001l-20.24001.39999h0c-.21001,0-.42999-.07001-.91-.14-.06-1-.19-2.11-.17999-3.17999.153-16.77299.31-33.543.47-50.31.14-14.4.25999-28.8.44-43.19.121-1.697.332-3.386.63-5.06-.002-1.011.81599-1.831,1.827-1.833.075,0,.149.004.22301.013,2.82001-.07,5.63-.25,8.45-.34,3.85001-.11,7.71001-.19,11.57001-.26h.08M189.92641,80.47866h-.09c-4.67.08-8.24001.17-11.58.26-1.32001,0-2.64.1-4,.16-1.47.07-3,.14-4.48.18-1.28799-.111-2.42101.843-2.532,2.131-.004.046-.007.093-.008.139-.07001.58-.16,1.17-.25999,1.74-.19901,1.11-.323,2.233-.37,3.36-.14,11.15-.25,22.48-.35001,33.43999l-.09,9.75-.08,8.08c-.127,14.08-.257,28.157-.39,42.23,0,.75999.05,1.50999.11,2.23,0,.33,0,.66.07001,1v.39999l.39999.06.44.08c.177.041.358.065.53999.07001l20.27-.39999h.56c.272.01401.54201-.048.78-.17999.7-.42,1.35001-.89,1.37-1.5.07001-2.19.07001-4.37.06-6.67v-2.67h-.46001c-.73-.06-1.48-.09-2.31-.09-1.46001,0-2.94.10001-4.37.19s-2.88.19-4.31.19h-1.7v-21.60001l9.06-.55,4.53999-.28h.50999l-.05-.50999-.28999-3.44-.53999-6.17999v-.47h-.47l-12.74001.5v-2.14c0-2.14999.07001-4.28999.10001-6.42999.07001-4.10001.14-8.33.17999-12.49.047-5.287.09-10.57.13-15.85l.09-11.76c0-.5.06-1,.11-1.57,0-.16,0-.32.05-.48h8.37c2.009.053,4.01801-.087,6-.42l.42-.09v-.42l-.19-4.49-.21001-4.84v-.43h-.42999l-.69-.08c-.394-.057-.79201-.091-1.19-.1l.02-.06v-.00004Z" style="fill: #ffb900;"/>
  <path d="M197.44641,185.52866c-.17599-.011-.35001-.041-.52-.09l-.47-.11h-.19v-1.19c0-.67999-.08-1.33-.08-2,.22701-26,.46001-51.97301.7-77.92.06-6,.14999-11.41.28999-16.7.064-1.348.25101-2.687.56-4,.42999-2,.60001-2.09,2.60001-2.18,5.52-.24,11.10001-.39,16-.53h5.91v10.09h-.23c-2.71001.23-5.49001.25-8.19.28-1.91,0-3.89,0-5.83.12-.48,3.39-1.06,46.2-.67999,50.88999h.24001c.276.05901.558.092.84.10001,1.39-.05,2.69-.12,4-.17999,1.50999-.08,3-.16,4.53999-.22h.42c.55,0,1.11,0,1.7.07001l1.09.06h.22l.81,9.92-14.05.84-.39,21.95c.74001.06,1.50999.09,2.35001.09,1.46001,0,2.91-.09,4.32001-.17999s2.8-.19,4.19-.19c.832-.00301,1.66299.037,2.49001.12h.22v8.89c.04401.811-.577,1.504-1.388,1.548-.02699.00101-.05499.002-.082.002h-.89999l-20.47.41-.02.11v-.00002Z" style="fill: #ffb900; fill-rule: evenodd;"/>
  <path d="M218.34641,81.01865h3.66v9.61c-4.67999.38-9.48.17-14.2.4-.5,1.64-1.12,47.82001-.72,51.35001.435.088.877.145,1.32001.17h.10001c2.81-.11,5.63-.28999,8.45-.39999h.41c.88,0,1.77.08,2.78.13.25999,3.21001.50999,6.2.77,9.45l-14,.83c-.13,7.49001-.25999,14.91-.39,22.42.87.08,1.74001.11,2.60001.11,2.91,0,5.72-.37,8.50999-.37.82201-.005,1.64301.035,2.46001.12v8.66c.05.666-.45,1.24699-1.116,1.297-.041.00301-.08299.004-.12399.00301h-.88l-20.47.41h0c-.33701-.04201-.67101-.105-1-.19,0-1-.13-2-.13-3,.22701-26,.46001-51.97299.7-77.92.06-5.567.157-11.133.28999-16.7.054-1.349.242-2.688.56-4,.39-1.8.44-1.89,2.36-2,5.33-.23,10.67-.38,16-.53h2M218.28641,80.36866h-2.06c-4.92999.14-10.53.3-16,.54-2.11.09-2.37.31-2.82001,2.37-.315,1.312-.506,2.652-.57001,4-.14,5.28-.23,10.75-.28999,16.7-.24001,26-.47301,51.97701-.7,77.92999,0,.66,0,1.31.08,2v1.39l.38.08.46001.10001c.19099.05901.39.093.59.10001l20.49001-.41h.91c.939.002,1.701-.758,1.703-1.69701,0-.034,0-.069-.00301-.103v-9.12h-.45c-.834-.08299-1.672-.123-2.50999-.12-1.39999,0-2.83.10001-4.21001.19s-2.85001.17999-4.3.17999c-.74001,0-1.42999,0-2.10001-.07001v-1l.36-20.46001,13.56999-.8h.50999v-.50999l-.48-5.88-.28999-3.57001v-.44h-.44l-1.08-.06c-.60001,0-1.16-.07001-1.72-.07001h-.35001c-1.52.06-3,.14-4.56.22l-3.89.17999h-.08c-.269-.006-.537-.036-.8-.09h0c-.32001-5.36.23-46,.67999-50.44,1.86-.08,3.75999-.1,5.60001-.11,2.7,0,5.5,0,8.21001-.28h.46001v-10.58h-4.16l-.14-.17v.00002Z" style="fill: #ffb900;"/>
  <path d="M59.40641,161.88866c-14.466-.326-25.929-12.317-25.604-26.783.317-14.074,11.698-25.381,25.774-25.607h.16c6.99.033,13.676,2.859,18.57,7.85,4.869,4.882,7.575,11.515,7.51,18.41.072,14.35899-11.51,26.058-25.869,26.13h-.541ZM59.51641,120.14866c-8.616.022-15.582,7.024-15.56,15.64001.022,8.616,7.024,15.582,15.64,15.56s15.582-7.024,15.56-15.64c-.022-8.584-6.976-15.538-15.56-15.56v-.25s-.08.25-.07999.24999Z" style="fill: #ffb900; fill-rule: evenodd;"/>
  <path d="M59.57641,109.70866h.15c14.329.297,25.703,12.154,25.406,26.48299-.289,13.933-11.532,25.14999-25.466,25.407h-.26c-14.328-.32401-25.68-12.203-25.356-26.53101.316-13.937,11.587-25.135,25.526-25.359M59.57641,151.44865c8.723.22,15.973-6.674,16.193-15.397.22-8.723-6.674-15.973-15.397-16.193-.265-.007-.53-.007-.795,0h-.09c-8.723.25-15.591,7.524-15.341,16.24599.241,8.41699,7.042,15.166,15.461,15.34399M59.60641,109.20866h0c-14.606.23-26.26,12.257-26.03,26.863.224,14.21201,11.64,25.70599,25.85,26.02701h.27c14.606-.26401,26.232-12.31799,25.968-26.924-.257-14.206-11.692-25.672-25.898-25.966,0,0-.16,0-.16,0ZM59.60641,150.94865c-8.448-.18401-15.148-7.181-14.964-15.629.177-8.147,6.709-14.726,14.854-14.961h.08c8.467.011,15.321,6.883,15.31,15.35001-.005,4.039-1.604,7.914-4.45,10.78-2.867,2.877-6.768,4.48399-10.83,4.46001h0v-.00002Z" style="fill: #ffb900;"/>
  <path d="M62.67641,178.09866c-9.47,0-19.53-.19-20.69-.60001l-.16-.06v-9.73h.24l9-.14c8.79-.14999,17.88-.28999,26.91-.28999h5.54v.25c.09,3.07001.08,6.09,0,9.78999v.21001h-.2c-2.35.42-12.59.57001-20.64.57001v-.00002Z" style="fill: #ffb900; fill-rule: evenodd;"/>
  <path d="M77.96641,167.49866h5.3c.1,3.39999.06,6.55,0,9.78999-2.14.37-11.39.55-20.59.55-9.8,0-19.54-.2-20.6-.59v-9.33c12-.17,23.88-.42999,35.93-.42999M78.00641,166.98866c-9,0-18.1.14-26.89.28999l-9,.14h-.49v10.19l.33.12c1.35.49001,13.69.62,20.77.62,8.06,0,18.31-.14999,20.68-.56l.4-.07001v-.41c.12-3.71001.13-6.74001,0-9.81v-.48h-5.84l.04-.03v.00002Z" style="fill: #ffb900;"/>
  <path d="M29.96641,61.87866c-.91-.601-1.34-1.713-1.07-2.77.273-2.165,1.4-4.13,3.13-5.46,2.433-1.966,5.293-3.336,8.35-4,3.041-.649,6.121-1.103,9.22-1.36,6.94-.56,13.92-.9,20.69-2.7,3.284-.946,6.516-2.068,9.68-3.36,2.385-.737,4.305-2.518,5.22-4.84.06-.17.29-.27.82-.31-.102.732-.263,1.454-.48,2.16-.986,2.437-2.858,4.409-5.24,5.52-4.117,2.056-8.488,3.556-13,4.46-.285.073-.576.116-.87.13-3.27.09-4.91,2.28-6.58,5.1l2.57-.54c1.68-.33,2.16,0,2.83,2.2-1.31.4-2.63.78-3.94,1.19-4.75,1.5-3.41.23-5.67,4.76-.76,1.52-1.39,3.1-2.05,4.59.119.247.267.478.44.69,2.64,2.33,3.12,5.36,2.39,8.55-1.049,4.422-3.23,8.496-6.33,11.82-.533.594-1.228,1.018-2,1.22-1.326.207-2.569-.7-2.776-2.026-.033-.213-.038-.43-.014-.644.158-2.29.53-4.559,1.11-6.78,1-3.49,2.18-6.92,3.29-10.37.18-.55.34-1.1.52-1.7-2-1.11-4.06-1.28-6.08-1.62-1.39-.23-2.8-.29-4.2-.49-.683-.011-1.355-.182-1.96-.5-.594-.41-1.037-1.004-1.26-1.69-.22-.88.66-1.22,1.33-1.53,1.001-.48,2.03-.901,3.08-1.26,4.5-1.49,9-3,13.54-4.37.948-.207,1.778-.778,2.31-1.59.73-1.18,1.59-2.29,2.36-3.38-.17-.19-.26-.38-.34-.37-6.28.42-12.64.06-18.76,1.83-2.194.68-4.297,1.627-6.26,2.82-2.091,1.099-3.465,3.203-3.63,5.56-.088.365-.212.72-.37,1.06h0ZM48.72641,83.99866c2.61-3.58,4.51-7.45,4.74-12,.165-.948-.111-1.92-.75-2.64-1.6,2.93-4,11.35-3.98,14.64h-.01ZM53.86641,59.56866l-10.37,3.36,7.76,2.18c.79-1.69,1.6-3.4,2.61-5.54Z" style="fill: #ffb900; fill-rule: evenodd;"/>
  <path d="M90.82641,67.58865c5.85-3.77,7.36-6.65,6.15-11.44l-1.21,1.64c-2.13,2.94-4.17,6-6.43,8.8-1.137,1.385-2.487,2.58-4,3.54-3.26,2.14-5.61,1.17-6.67-2.56-.084-.229-.181-.452-.29-.67-.94,1.59-1.78,3-2.66,4.48-.485.809-1.019,1.587-1.6,2.33-.472.806-1.462,1.146-2.33.8-.949-.35-1.518-1.321-1.36-2.32.1-1.19.3-2.36.49-3.53s.48-2.18.61-3.28c.21-1.79.11-1.88-1.89-2.57-.94,2.25-1.76,4.55-2.84,6.73-1.18,2.39-2.57,4.67-3.92,7-.354.567-.808,1.065-1.34,1.47-.617.452-1.474.375-2-.18-.484-.398-.556-1.113-.16-1.6.69-1.23,1.4-2.45,2-3.7,1.79-3.41,3.59-6.82,5.3-10.27.471-.851.555-1.863.23-2.78-.44-1.35,0-2.16.86-2.34s2.52.72,2.39,1.78c-.23,1.88.83,2.62,2.15,3.42,1.63,1,1.81,2.61,1.56,4.32-.197.865-.251,1.757-.16,2.64.233-.254.447-.525.64-.81,2.48-4.13,5-8.26,7.42-12.42,1.006-2,2.524-3.698,4.4-4.92,1.65-1,3.37-.35,3.73,1.28.14.578.14,1.182,0,1.76-.951,3.855-3.263,7.236-6.51,9.52-2.21,1.54-2.48,2.09-1.66,5.13.781-.391,1.53-.842,2.24-1.35,5.051-4.5,9.286-9.839,12.52-15.78.288-.758.506-1.542.65-2.34.24-.69.51-1.46,1.47-1.4.77.06,1.72,1.17,1.45,2-1.07,3-.18,6-.07,9,.29,3.239-.963,6.425-3.38,8.6-1.054.839-2.387,1.247-3.73,1.14-.59,0-1.17-.62-2.05-1.12v-.00002ZM87.24641,53.80866c-1.713,1.387-2.937,3.286-3.49,5.42,1.73-1.372,2.957-3.278,3.49-5.42Z" style="fill: #ffb900; fill-rule: evenodd;"/>
  <path d="M106.46641,51.41866c1.52-2,2.84-3.76,4.23-5.48.66-.82,1.42-1.57,2.66-1,1.096.445,1.712,1.614,1.46,2.77-.26,1.83-.58,3.66-1,5.47-.79,3.83-1.87,7.62-1.7,11.58-1.74.08-2.37-.25-2.57-1.7-.185-1.243-.185-2.507,0-3.75.42-2.79,1-5.55,1.52-8.32.15-.655.207-1.329.17-2-3.92,4.55-6,10-7.36,15.71-1.64-.15-1.82-1-1.68-2.08.32-2.42.56-4.87,1-7.27,1-5.46,2.09-10.92,3.25-16.35.32-1.22.834-2.381,1.52-3.44.359-.532.959-.85,1.6-.85.94.24.66,1.1.47,1.86-1.18,4.66-2.34,9.34-3.5,14-.042.282-.065.565-.07.84999Z" style="fill: #ffb900; fill-rule: evenodd;"/>
  <path d="M58.96641,93.70866c-1-.64-1-1.41-.46-2.15.636-.816,1.339-1.579,2.1-2.28,3.325-2.872,7.026-5.277,11-7.15,7.178-3.709,14.814-6.456,22.71-8.17,5.378-1.105,10.85-1.685,16.34-1.73.68,0,1.79-.32,1.86.63.08,1.21-1.13.85-1.84.9-6.941.62-13.788,2.029-20.41,4.2-8.486,2.458-16.593,6.076-24.09,10.75-2.43,1.49-4.72,3.24-7.21,5.00001Z" style="fill: #ffb900; fill-rule: evenodd;"/>
  <path d="M195.1864,37.03866c1.42999-.78,2.31-1.31,3.23-1.75.795-.406,1.625-.741,2.48-1,2.966-1.022,6.19901.554,7.22,3.52.101.293.17799.594.23.9.493,1.878.44701,3.856-.13,5.71-2.16,6.77-7,10.41-13.77,11.82-.89101.082-1.789.082-2.67999,0l-.55,1.11c2.81.86,5.57001,1.52,8.16,2.56,1.923.764,3.718,1.82,5.32001,3.13,2.28,1.89,2.2,4.28-.28,5.94-1.92,1.246-4.008,2.212-6.2,2.87-5.571,1.592-11.304,2.551-17.09,2.86-6.95399.51-13.936.51-20.89,0-7.63-.58-15.21001-1.51-22.47-4-1.80701-.67-3.556-1.486-5.23-2.44-.82899-.49-1.561-1.127-2.16-1.88-1.3-1.54-1.35001-3.23.11-4.59,1.24699-1.146,2.67599-2.076,4.23-2.75,2.10001-.779,4.24001-1.446,6.41-2-.41-.6-.83-1.15-1.17999-1.74-1.75-2.92-3.7-5.75-5.14999-8.81-.976-2.314-1.69299-4.729-2.14-7.2-.44501-2.223.16499-4.527,1.64999-6.24,2.22501-2.824,5.36501-4.784,8.88-5.54,5.27901-1.241,10.7-1.779,16.12-1.6,7.70599.092,15.394.761,23,2,3.455.498,6.80099,1.573,9.89999,3.18,2.25,1.1,4.11,2.5,2.98,5.94ZM194.44641,37.48866c-.32001.121-.63.265-.92999.43-3.502,2.249-7.381,3.848-11.45,4.72-9.263,2.15-18.80299,2.848-28.28,2.07-4.746-.246-9.41701-1.283-13.81999-3.07-1.94701-.74-3.69901-1.917-5.12-3.44-.25-.29-.57001-.52-1.23-1.13-.013.965.064,1.929.23,2.88.539,2.075,1.248,4.102,2.12,6.06,2.04201,4.055,4.70399,7.766,7.89,11,4.10699,4.308,9.25101,7.49,14.94,9.24,6.36,2,12.60001,1.83,18.50999-1.5,2.377-1.366,4.683-2.851,6.91-4.45,3.297-2.45,5.815-5.801,7.25-9.65,1.67999-4.2,2.28999-8.58,2.98-13.16h-.00002ZM171.64641,73.54866c7.077.028,14.144-.558,21.12-1.75,3.64-.68,7.25999-1.59,10.39-3.75,2.31-1.59,2.35001-3.38,0-4.92-3.478-2.143-7.35699-3.552-11.39999-4.14-.952-.217-1.937.182-2.47,1-2.97501,3.638-6.953,6.322-11.44,7.72-4.173,1.364-8.57201,1.901-12.95,1.58-6.35201-.182-12.481-2.382-17.5-6.28-1.491-1.224-2.903-2.54-4.23-3.94-.48801-.678-1.37601-.934-2.14999-.62-2.42999.88-4.88,1.7-7.31,2.59-.478.202-.923.475-1.32001.81-2,1.48-2,3,0,4.47,1.07001.793,2.24001,1.442,3.48,1.93,1.86099.737,3.76399,1.361,5.7,1.87,9.8,2.59,19.86,3.14,30.08,3.43v-.00002ZM190.21642,37.54866c-.539-1.551-1.896-2.673-3.52-2.91-2.76401-.823-5.59-1.422-8.45-1.79-9.44299-1.046-18.98601-.763-28.35001.84-3.37801.45-6.67599,1.369-9.8,2.73-1,.5-2.17,1-2.52,2.24,9.25,5.86,39.49001,5.67,52.64-1.1v-.01h.00002ZM191.81641,36.86866c.48199-.242.95-.513,1.39999-.81,1.05-.76,1.17-1.39.34-2.38-.42-.518-.936-.949-1.52-1.27-1.28999-.718-2.62601-1.349-4-1.89-4.58-1.73-9.42-2.07-14.23-2.13-6.59-.09-13.19.14-19.77.46-4.233.168-8.422.918-12.45,2.23-2.08099.601-4.002,1.66-5.62,3.1-1.55,1.46-1.5,2,.28999,3.45,2.757-2.259,6.026-3.808,9.52-4.51,7.30299-1.683,14.78799-2.446,22.28-2.27,5.42799-.075,10.842.55,16.11,1.86,2.85001.76,5.8,1.51,7.64999,4.17v-.01h.00002ZM202.20641,38.04866c-2.82001-.1-4.89999,1.52-7,3.14-.19.15-.23.53-.28.81-.52,2.89-1,5.78-1.52,8.69,4.32001-.61,9.87-8.47,8.8-12.63v-.01ZM192.53641,54.40866c.26601.027.534.027.8,0,6.08-1.57,10-5.48,12.34-11.21.651-1.599.673-3.386.06-5-.369-1.427-1.677-2.407-3.14999-2.36-2.72701.112-5.27499,1.386-7,3.5.517-.211,1.01601-.465,1.49001-.76,1.17999-.608,2.411-1.11,3.67999-1.5,1.89-.46,3.17999.48,3.50999,2.41.11.581.11,1.179,0,1.76-.58099,3.327-2.39,6.314-5.07001,8.37-1.737,1.487-3.909,2.371-6.19,2.52-.2.66-.36,1.15-.49001,1.65-.01401.21-.007.421.02.63v-.01h.00002Z" style="fill-rule: evenodd;"/>
  <path d="M180.96642,22.55866c-.16-.49-.28999-.8-.36-1.12-.48-2.53-.87-5.09-1.46001-7.59-.67-2.84-1.12-5.66-.3-8.53.442-1.735,1.422-3.286,2.8-4.43.8-.63,1.67-1.23,2.86-.66-.05.25,0,.51-.14999.63-3.25999,3.55-3.55,7.79-3,12.27.28999,2.26.55,4.54.73,6.81.187,1.019-.255,2.051-1.12,2.62Z" style="fill-rule: evenodd;"/>
  <path d="M155.56641,21.97866c-.35001-.13-.47-.14-.47-.18-.73-4-1.48-8-2.14-12-.416-2.516.08099-5.098,1.39999-7.28.42999-.73.88-1.57,2.19-1.2-.082.429-.19901.85-.35001,1.26-1.483,3.032-1.789,6.506-.86,9.75.871,2.774,1.07001,5.714.58,8.58-.08.34-.22.67-.35001,1.07h.00002Z" style="fill-rule: evenodd;"/>
  <path d="M167.61641,4.70866c-.153.676-.34,1.343-.56,2-.571,1.378-.60001,2.922-.08,4.32.57001,1.67,1.13,3.36,1.57001,5.07.565,1.836.19099,3.833-1,5.34-.14-.34-.35001-.58-.32001-.79.42999-3-.74001-5.66-2-8.25-1.064-1.735-1.224-3.876-.42999-5.75.46001-.94.92999-2.03,2.82001-1.94h-.00002Z" style="fill-rule: evenodd;"/>
  <path d="M145.33641,22.32866c-.84-2.11-1.69-4.22-2.52-6.34-.5-1.29-.7-2.54.55-3.54.23.11.44.15.47.24.66,2.56,1.34,5.11,1.92999,7.69.058.667.034,1.339-.07001,2l-.36-.05h.00002Z" style="fill-rule: evenodd;"/>
  <path d="M173.25641,63.75866c5.74001-3.53,11.2-7.36,14.61-13.51l.62.24c.14999.49.53,1,.41,1.45-.229,1.008-.632,1.969-1.19,2.84-3.37,4.86-8.60001,8.11-14.45,8.98Z" style="fill-rule: evenodd;"/>
  <path d="M189.04641,48.40866c.09-1,.14-2,.32001-2.93,0-.24.64-.61.82001-.53.33.15.75999.56.77.88.009,1.189-.77,2.241-1.91,2.58h-.00002Z" style="fill-rule: evenodd;"/>
  <path d="M183.84641,70.22866c1.91-.47,3.8-1,5.73-1.38,3.50999-.65,7-1.29,9.63-4,0-.06.25999,0,.58.1-.192,1.324-1.09399,2.437-2.35001,2.9-1.741.796-3.55701,1.419-5.42,1.86-2.64.57-5.35001.84-8,1.24-.05-.24-.12-.48-.17-.72Z" style="fill-rule: evenodd;"/>
  <path d="M134.19641,64.83865c.145-.745.405-1.464.77-2.13,1.04201-1.286,2.61501-2.023,4.27-2,.42,0,.84.44,1.25999.68-.25999.38-.44,1-.81,1.13-1.62.75-3.32001,1.41-5.49001,2.32Z" style="fill-rule: evenodd;"/>
  <path d="M152.28641,35.93866l-1.75999,2.13c.91499.457,1.976.522,2.94.18,2.75-.61,5.49001-1.26,8.25-1.78,2.17999-.42,2.39-.23,3.46001,2.14,1.19-.44,2.44-.83,3.64-1.33,2.60899-1.265,5.461-1.947,8.36-2h.44c2.52,0,3.74001.57,3,3.93l-1.47-2.5c-1.099.012-2.196.109-3.28.29-2.67.63-5.3,1.4-8,2.12-.28999.07-.56.18-.85001.25-2.53999.6-3,.36-4.13-2.22l-4.44,1.09c-1.87.45-3.74001.93-5.61,1.37-.43201.103-.87601.147-1.32001.13-1.41-.07-2.14999-.69-2.13-1.76.07001-1.27,1.17-2.13,2.89999-2.04h.00002Z" style="fill-rule: evenodd;"/>
  <path d="M190.21642,37.55866c-.539-1.551-1.896-2.673-3.52-2.91-2.76401-.823-5.59-1.422-8.45-1.79-9.44299-1.046-18.98601-.763-28.35001.84-3.37801.45-6.67599,1.369-9.8,2.73-1,.5-2.17,1-2.52,2.24,9.25,5.85,39.49001,5.66,52.64-1.11h.00002Z" style="fill-rule: evenodd;"/>
</svg>